<svg xmlns="http://www.w3.org/2000/svg" viewBox="0 0 542.63 139.29"><defs><style>.cls-1,.cls-3,.cls-4,.cls-5,.cls-6{isolation:isolate;}.cls-2,.cls-3,.cls-4,.cls-5,.cls-6{fill:#e30613;}.cls-3,.cls-4,.cls-5,.cls-6{font-size:24.87px;font-family:ArialMT, Arial;}.cls-3{letter-spacing:0.03em;}.cls-4{letter-spacing:0.08em;}.cls-5{letter-spacing:0.08em;}</style></defs><g id="Layer_2" data-name="Layer 2"><g id="Ebene_1" data-name="Ebene 1"><g class="cls-1"><g class="cls-1"><path class="cls-2" d="M2.22,101.15,3,105.6l-2,.34-.62-3.5A18.33,18.33,0,0,1,0,98.25a5.18,5.18,0,0,1,.9-2.81l.71,1.41a2.88,2.88,0,0,0-.57,1.6,12.25,12.25,0,0,0,.2,2.87Zm3.15-.55L6.16,105l-2,.35-.62-3.51a18.85,18.85,0,0,1-.4-4.18,5.32,5.32,0,0,1,.9-2.81l.71,1.41a3,3,0,0,0-.57,1.6,12.42,12.42,0,0,0,.21,2.87Z"/></g><g class="cls-1"><path class="cls-2" d="M17.91,125.13,12.41,94,18,93a6.8,6.8,0,0,1,2.32-.1A3.77,3.77,0,0,1,22.46,94a9.06,9.06,0,0,1,1.73,2.8,18.89,18.89,0,0,1,1.2,4.17,17,17,0,0,1,0,6.94,4.46,4.46,0,0,1-3.89,3.53l-3.83.67,2.23,12.67ZM17,108.43l3.86-.68a2.86,2.86,0,0,0,2.45-2,9,9,0,0,0,.07-4.33,10.92,10.92,0,0,0-1.06-3.27,3.29,3.29,0,0,0-1.58-1.62,4.33,4.33,0,0,0-1.89.05L15,97.29Z"/></g><g class="cls-1"><path class="cls-2" d="M39.35,113.85l2,.16a13.57,13.57,0,0,1-.71,5.67,3.62,3.62,0,0,1-2.76,2.46q-2.37.42-4.29-2.39a21.45,21.45,0,0,1-2.9-8.31,22.76,22.76,0,0,1-.16-9.09c.57-2.26,1.6-3.53,3.09-3.79s2.81.56,4.09,2.46a22.39,22.39,0,0,1,2.9,8.43c0,.23.1.57.17,1l-8.06,1.42a15.57,15.57,0,0,0,2,5.52c.84,1.21,1.71,1.74,2.61,1.58a2.07,2.07,0,0,0,1.52-1.41A9.86,9.86,0,0,0,39.35,113.85Zm-7.1-5.12,6-1.07a14.13,14.13,0,0,0-1.44-4.15c-.85-1.37-1.73-2-2.66-1.81s-1.45.86-1.81,2.14A11.78,11.78,0,0,0,32.25,108.73Z"/></g><g class="cls-1"><path class="cls-2" d="M45.07,113.39l1.71-.91a8.5,8.5,0,0,0,1.46,3.34,2.2,2.2,0,0,0,2.17.86,2,2,0,0,0,1.68-1.4,5.21,5.21,0,0,0,.17-2.63,3.56,3.56,0,0,0-.9-1.94,6.14,6.14,0,0,0-2.1-1,12.3,12.3,0,0,1-3.12-1.35,5,5,0,0,1-1.56-1.93,11.9,11.9,0,0,1-1.1-5.82A7,7,0,0,1,44,98.35,3.7,3.7,0,0,1,45,97a3,3,0,0,1,1.5-.74,3.52,3.52,0,0,1,2.37.37,4.61,4.61,0,0,1,1.79,1.82,14.89,14.89,0,0,1,1.25,3.39l-1.71.83A6.24,6.24,0,0,0,49,100.1a1.89,1.89,0,0,0-1.83-.69,2,2,0,0,0-1.65,1.19,4,4,0,0,0-.18,2.14,4.16,4.16,0,0,0,.46,1.3,2.56,2.56,0,0,0,.89.9c.2.1.8.34,1.79.69a16.14,16.14,0,0,1,3,1.29,4.53,4.53,0,0,1,1.56,1.8,10.57,10.57,0,0,1,1,3.2,12.16,12.16,0,0,1,.1,3.7,6,6,0,0,1-1.08,2.88A3.34,3.34,0,0,1,51,119.83a3.58,3.58,0,0,1-3.53-1.26A13.12,13.12,0,0,1,45.07,113.39Z"/></g><g class="cls-1"><path class="cls-2" d="M58.53,111l1.7-.91a8.3,8.3,0,0,0,1.47,3.33,2.16,2.16,0,0,0,2.16.87,2,2,0,0,0,1.68-1.4,5.11,5.11,0,0,0,.17-2.63,3.55,3.55,0,0,0-.9-2,6.27,6.27,0,0,0-2.1-1A12.3,12.3,0,0,1,59.59,106,5,5,0,0,1,58,104.08a10.94,10.94,0,0,1-.94-3,11.64,11.64,0,0,1-.16-2.85,7.08,7.08,0,0,1,.53-2.3,3.76,3.76,0,0,1,1-1.32,3,3,0,0,1,1.51-.73,3.54,3.54,0,0,1,2.37.37,4.53,4.53,0,0,1,1.78,1.82,14.89,14.89,0,0,1,1.25,3.39l-1.7.82a6.38,6.38,0,0,0-1.19-2.59A1.84,1.84,0,0,0,60.61,97,2,2,0,0,0,59,98.23a4.19,4.19,0,0,0,.28,3.44,2.35,2.35,0,0,0,.88.89c.21.11.8.34,1.79.69a16.71,16.71,0,0,1,3,1.3,4.53,4.53,0,0,1,1.56,1.8,10.59,10.59,0,0,1,1,3.19,12.17,12.17,0,0,1,.1,3.7,6,6,0,0,1-1.08,2.89,3.35,3.35,0,0,1-2.12,1.33,3.6,3.6,0,0,1-3.53-1.27A12.94,12.94,0,0,1,58.53,111Z"/></g><g class="cls-1"><path class="cls-2" d="M69.11,88.51l-.78-4.4,1.84-.33.77,4.4Zm4.72,26.76-4-22.58,1.83-.32,4,22.58Z"/><path class="cls-2" d="M81.43,114.28l-4-22.57,1.64-.29.55,3.17a7.68,7.68,0,0,1,.89-2.91,2.51,2.51,0,0,1,1.74-1.35,2.37,2.37,0,0,1,2.15.7A6.8,6.8,0,0,1,86,93.75c.39-2.79,1.27-4.3,2.64-4.55a2.74,2.74,0,0,1,2.8,1.43,14.49,14.49,0,0,1,1.88,5.58l2.73,15.49-1.82.32L91.74,97.8A21.31,21.31,0,0,0,91,94.53,3.94,3.94,0,0,0,90.05,93a1.42,1.42,0,0,0-1.21-.42c-.76.14-1.3.78-1.61,1.92a12.68,12.68,0,0,0,.14,5.2l2.31,13.12-1.83.32L85.26,98.48a12.31,12.31,0,0,0-1.12-3.74c-.45-.8-1-1.14-1.69-1a1.86,1.86,0,0,0-1.28,1.1,5.74,5.74,0,0,0-.51,2.66,27.65,27.65,0,0,0,.54,4.77L83.26,114Z"/></g><g class="cls-1"><path class="cls-2" d="M96.93,83.6l-.78-4.4L98,78.88l.77,4.4Zm4.72,26.77-4-22.58,1.83-.32,4,22.57Z"/></g><g class="cls-1"><path class="cls-2" d="M107.3,102.42l1.71-.91a8.5,8.5,0,0,0,1.46,3.34,2.2,2.2,0,0,0,2.17.86,2,2,0,0,0,1.68-1.4,5.11,5.11,0,0,0,.16-2.63,3.48,3.48,0,0,0-.89-1.94,6.11,6.11,0,0,0-2.11-1,12.36,12.36,0,0,1-3.11-1.35,5,5,0,0,1-1.56-1.93,11.9,11.9,0,0,1-1.1-5.82,7,7,0,0,1,.52-2.29,3.7,3.7,0,0,1,1-1.32,3,3,0,0,1,1.5-.74,3.52,3.52,0,0,1,2.37.37,4.61,4.61,0,0,1,1.79,1.82,14.89,14.89,0,0,1,1.25,3.39l-1.71.83a6.24,6.24,0,0,0-1.18-2.6,1.89,1.89,0,0,0-1.83-.69,2,2,0,0,0-1.65,1.19,4,4,0,0,0-.18,2.14,3.92,3.92,0,0,0,.46,1.3,2.45,2.45,0,0,0,.89.89,17.22,17.22,0,0,0,1.79.7,15.37,15.37,0,0,1,3,1.3,4.5,4.5,0,0,1,1.56,1.79,10.57,10.57,0,0,1,1,3.2,12.16,12.16,0,0,1,.1,3.7,6,6,0,0,1-1.08,2.88,3.34,3.34,0,0,1-2.12,1.33,3.58,3.58,0,0,1-3.53-1.26A13.12,13.12,0,0,1,107.3,102.42Z"/></g><g class="cls-1"><path class="cls-2" d="M122.63,106.67l-4-22.58,1.63-.29.56,3.17a7.79,7.79,0,0,1,.89-2.91,2.51,2.51,0,0,1,1.74-1.35,2.39,2.39,0,0,1,2.15.7,6.8,6.8,0,0,1,1.6,2.72q.59-4.18,2.64-4.54a2.75,2.75,0,0,1,2.8,1.42,14.56,14.56,0,0,1,1.88,5.58l2.73,15.5-1.82.32-2.51-14.22a21.51,21.51,0,0,0-.76-3.28,3.89,3.89,0,0,0-.93-1.51A1.36,1.36,0,0,0,130,85c-.76.13-1.3.77-1.62,1.91a13,13,0,0,0,.15,5.21l2.31,13.11-1.83.33-2.59-14.67a12.49,12.49,0,0,0-1.12-3.75c-.45-.8-1-1.14-1.69-1a1.85,1.85,0,0,0-1.28,1.11,5.73,5.73,0,0,0-.51,2.65,28.26,28.26,0,0,0,.53,4.77l2.07,11.72Z"/></g><g class="cls-1"><path class="cls-2" d="M148.42,90.48q-1.09-6.27,0-9.58c.63-1.84,1.62-2.87,2.95-3.11q2.24-.39,4.18,2.41a20.74,20.74,0,0,1,2.9,8.18,29.84,29.84,0,0,1,.59,7,9.6,9.6,0,0,1-1.14,4.2,3.51,3.51,0,0,1-2.37,1.84q-2.26.4-4.2-2.39C150.08,97.13,149.1,94.3,148.42,90.48Zm1.89-.33a17.93,17.93,0,0,0,2.05,6.34c.86,1.33,1.74,1.91,2.66,1.75s1.54-1,1.88-2.57a18.23,18.23,0,0,0-.26-6.77,17.06,17.06,0,0,0-2-6.18c-.86-1.33-1.74-1.92-2.64-1.76s-1.55,1-1.9,2.55A17.87,17.87,0,0,0,150.31,90.15Z"/></g><g class="cls-1"><path class="cls-2" d="M166,99l-3.46-19.6L161,79.7l-.53-3,1.62-.29-.42-2.4a21.65,21.65,0,0,1-.41-3.42,5.8,5.8,0,0,1,.51-2.57,2.18,2.18,0,0,1,1.7-1.26,4.77,4.77,0,0,1,1.78.08l.31,3.39a3.21,3.21,0,0,0-1.11,0,1.21,1.21,0,0,0-1,1A7.68,7.68,0,0,0,163.5,74l.37,2.08,2.11-.37.52,3-2.1.38,3.45,19.6Z"/></g><g class="cls-1"><path class="cls-2" d="M185.87,92l.86,3.34a3.5,3.5,0,0,1-1.33.58,1.94,1.94,0,0,1-1.66-.38,4.1,4.1,0,0,1-1.08-1.6,29.73,29.73,0,0,1-1-4.48l-2.29-13L178,76.7l-.53-3,1.35-.24-1-5.59,1.42-2.61,1.39,7.88,1.84-.32.53,3-1.85.32,2.33,13.2a13.48,13.48,0,0,0,.47,2.09,1.8,1.8,0,0,0,.45.69.77.77,0,0,0,.67.17A3.33,3.33,0,0,0,185.87,92Z"/><path class="cls-2" d="M192.24,94.93l-5.49-31.17,1.83-.32,2,11.18q.73-3.33,2.69-3.67a2.75,2.75,0,0,1,2.26.62,5.94,5.94,0,0,1,1.75,2.51,25.52,25.52,0,0,1,1.27,5L201,93.38l-1.83.32-2.52-14.31a11,11,0,0,0-1.33-4.07,1.89,1.89,0,0,0-1.92-1,2,2,0,0,0-1.37,1.15,5.39,5.39,0,0,0-.6,2.57,21.46,21.46,0,0,0,.43,4.22l2.17,12.36Z"/></g><g class="cls-1"><path class="cls-2" d="M212.05,83.41l2,.16a13.73,13.73,0,0,1-.71,5.67,3.65,3.65,0,0,1-2.76,2.46c-1.58.27-3-.52-4.3-2.39a21.62,21.62,0,0,1-2.9-8.31,22.55,22.55,0,0,1-.15-9.09q.84-3.41,3.09-3.79t4.08,2.46a22,22,0,0,1,2.9,8.43c0,.22.1.56.17,1l-8.06,1.42a15.36,15.36,0,0,0,2,5.52c.83,1.21,1.7,1.74,2.6,1.58a2.08,2.08,0,0,0,1.53-1.41A10.28,10.28,0,0,0,212.05,83.41Zm-7.11-5.12,6-1.07a14,14,0,0,0-1.45-4.15c-.84-1.37-1.73-2-2.66-1.81s-1.44.86-1.81,2.14A12.12,12.12,0,0,0,204.94,78.29Z"/></g><g class="cls-1"><path class="cls-2" d="M225.54,81.58l1.7-.91A8.23,8.23,0,0,0,228.71,84a2.18,2.18,0,0,0,2.16.87,2,2,0,0,0,1.68-1.4,5.1,5.1,0,0,0,.17-2.63,3.42,3.42,0,0,0-.9-1.94,6,6,0,0,0-2.1-1,12.3,12.3,0,0,1-3.12-1.35A5,5,0,0,1,225,74.64a10.63,10.63,0,0,1-.93-3,11.77,11.77,0,0,1-.17-2.86,7,7,0,0,1,.53-2.29,3.82,3.82,0,0,1,1-1.33,3,3,0,0,1,1.5-.73,3.52,3.52,0,0,1,2.37.37,4.53,4.53,0,0,1,1.78,1.82,14.42,14.42,0,0,1,1.25,3.39l-1.7.82a6.25,6.25,0,0,0-1.19-2.59,1.85,1.85,0,0,0-1.82-.69A2,2,0,0,0,226,68.79a3.83,3.83,0,0,0-.18,2.14,3.92,3.92,0,0,0,.46,1.3,2.35,2.35,0,0,0,.88.89c.21.11.81.34,1.79.7a16.62,16.62,0,0,1,3,1.29,4.69,4.69,0,0,1,1.56,1.8,10.87,10.87,0,0,1,1,3.2,11.78,11.78,0,0,1,.1,3.69,6,6,0,0,1-1.08,2.89A3.36,3.36,0,0,1,231.44,88a3.61,3.61,0,0,1-3.54-1.27A12.87,12.87,0,0,1,225.54,81.58Z"/></g><g class="cls-1"><path class="cls-2" d="M242.41,94.48,236.9,63.25l1.67-.3.52,2.94a8.1,8.1,0,0,1,.87-2.82,2.38,2.38,0,0,1,1.65-1.18A3.05,3.05,0,0,1,244.32,63a11.15,11.15,0,0,1,2.34,3.92,31.55,31.55,0,0,1,1.58,5.84,30.25,30.25,0,0,1,.51,6.35,10.79,10.79,0,0,1-1,4.55,3.15,3.15,0,0,1-2.13,1.9,2.16,2.16,0,0,1-1.78-.52,6.49,6.49,0,0,1-1.56-1.83l1.94,11Zm-1.84-20.11a18.47,18.47,0,0,0,2,6.3c.81,1.29,1.61,1.86,2.41,1.72s1.39-1,1.71-2.53a19.29,19.29,0,0,0-.3-6.84,18.83,18.83,0,0,0-2-6.31c-.82-1.33-1.62-1.93-2.41-1.79s-1.34,1-1.67,2.65A19.32,19.32,0,0,0,240.57,74.37Z"/></g><g class="cls-1"><path class="cls-2" d="M250.81,56.48l-.78-4.4,1.83-.33.78,4.4Zm4.72,26.76-4-22.58,1.84-.32,4,22.58Z"/></g><g class="cls-1"><path class="cls-2" d="M263,81.92l-4-22.57,1.65-.29.6,3.42a11.42,11.42,0,0,1,.61-3.37,1.49,1.49,0,0,1,1-1A2.67,2.67,0,0,1,265,59V62.7a1.86,1.86,0,0,0-1.49-.6c-.4.07-.71.39-.94.95a5.58,5.58,0,0,0-.32,2.21,30.5,30.5,0,0,0,.49,4.52l2.08,11.82Z"/></g><g class="cls-1"><path class="cls-2" d="M268.14,53.42l-.78-4.4,1.83-.32.78,4.4Zm4.72,26.77-4-22.58,1.83-.32,4,22.58Z"/></g><g class="cls-1"><path class="cls-2" d="M283.87,74.72l.86,3.33a3.71,3.71,0,0,1-1.33.59,2,2,0,0,1-1.66-.39,4,4,0,0,1-1.08-1.6,29.81,29.81,0,0,1-1-4.47l-2.29-13-1.34.23-.53-3,1.34-.24-1-5.59L277.26,48l1.39,7.89,1.84-.33.52,3-1.84.33,2.33,13.2a13.25,13.25,0,0,0,.47,2.08,1.65,1.65,0,0,0,.44.69.77.77,0,0,0,.68.17A3.22,3.22,0,0,0,283.87,74.72Z"/></g><g class="cls-1"><path class="cls-2" d="M286,59.08l-.77-4.35,2.09-.37.76,4.36Zm3.21,18.22L288.45,73l2.09-.37.77,4.36a15.23,15.23,0,0,1,.27,4,4.65,4.65,0,0,1-.89,2.51l-.79-1.55a3.3,3.3,0,0,0,.58-1.71,13.77,13.77,0,0,0-.22-3Z"/></g><g class="cls-1"><path class="cls-2" d="M305,63.24q-1.11-6.27,0-9.58c.64-1.84,1.62-2.87,3-3.11s2.88.54,4.18,2.41a20.8,20.8,0,0,1,2.9,8.18,30.3,30.3,0,0,1,.58,7,9.34,9.34,0,0,1-1.14,4.2,3.49,3.49,0,0,1-2.36,1.84c-1.51.27-2.92-.53-4.21-2.39S305.62,67.06,305,63.24Zm1.88-.33a18.13,18.13,0,0,0,2.05,6.34c.86,1.33,1.75,1.92,2.66,1.75s1.54-1,1.89-2.56a18.5,18.5,0,0,0-.26-6.78,17.26,17.26,0,0,0-2-6.18c-.86-1.33-1.74-1.92-2.64-1.76s-1.55,1-1.91,2.55A17.87,17.87,0,0,0,306.83,62.91Z"/><path class="cls-2" d="M322.72,80.85l-5.51-31.23,1.67-.29.52,2.93a8.1,8.1,0,0,1,.87-2.82,2.38,2.38,0,0,1,1.65-1.18,3.05,3.05,0,0,1,2.71,1.06A11.15,11.15,0,0,1,327,53.24a31.55,31.55,0,0,1,1.58,5.84,30.31,30.31,0,0,1,.51,6.35,10.88,10.88,0,0,1-1,4.56A3.16,3.16,0,0,1,326,71.88a2.19,2.19,0,0,1-1.78-.51,6.78,6.78,0,0,1-1.56-1.83l1.94,11Zm-1.84-20.11a18.47,18.47,0,0,0,2,6.3c.81,1.29,1.61,1.86,2.42,1.72s1.38-1,1.7-2.53a19.29,19.29,0,0,0-.3-6.84,18.91,18.91,0,0,0-2-6.31c-.82-1.33-1.62-1.93-2.41-1.79s-1.34,1-1.67,2.65A19.32,19.32,0,0,0,320.88,60.74Z"/></g><g class="cls-1"><path class="cls-2" d="M338.23,65.14l.86,3.33a3.5,3.5,0,0,1-1.33.58,1.94,1.94,0,0,1-1.66-.38,4.1,4.1,0,0,1-1.08-1.6,29.73,29.73,0,0,1-1-4.48l-2.29-13-1.34.24-.53-3,1.35-.23-1-5.59,1.42-2.62L333,46.31l1.84-.33.52,3-1.84.32,2.33,13.2a13.18,13.18,0,0,0,.47,2.09,1.91,1.91,0,0,0,.44.69.77.77,0,0,0,.68.17A3.71,3.71,0,0,0,338.23,65.14Z"/></g><g class="cls-1"><path class="cls-2" d="M339,40.93l-.78-4.4,1.83-.32.78,4.4Zm4.71,26.77-4-22.58,1.83-.32,4,22.57Z"/><path class="cls-2" d="M350.32,66.71l-4-22.58,1.64-.29.56,3.17a7.8,7.8,0,0,1,.88-2.91,2.5,2.5,0,0,1,1.75-1.34,2.36,2.36,0,0,1,2.15.69,6.91,6.91,0,0,1,1.6,2.72q.58-4.19,2.64-4.54a2.74,2.74,0,0,1,2.8,1.42,14.58,14.58,0,0,1,1.87,5.58L365,64.13l-1.83.32-2.5-14.22a22.82,22.82,0,0,0-.76-3.28,3.79,3.79,0,0,0-.94-1.51,1.33,1.33,0,0,0-1.2-.42c-.76.13-1.3.77-1.62,1.91a12.91,12.91,0,0,0,.14,5.21l2.32,13.11-1.84.33-2.58-14.67A12.79,12.79,0,0,0,353,47.16c-.45-.8-1-1.14-1.69-1a1.83,1.83,0,0,0-1.28,1.11,5.85,5.85,0,0,0-.52,2.65,29.59,29.59,0,0,0,.54,4.77l2.07,11.72Z"/></g><g class="cls-1"><path class="cls-2" d="M366.83,36l-.78-4.4,1.83-.33.78,4.4Zm4.72,26.76-4-22.58,1.84-.32,4,22.58Z"/></g><g class="cls-1"><path class="cls-2" d="M377.2,54.85l1.7-.92a8.35,8.35,0,0,0,1.47,3.34,2.17,2.17,0,0,0,2.16.87,2,2,0,0,0,1.68-1.41,5.06,5.06,0,0,0,.17-2.62,3.42,3.42,0,0,0-.9-2,6.23,6.23,0,0,0-2.1-1,12.74,12.74,0,0,1-3.12-1.34,5,5,0,0,1-1.56-1.94,10.71,10.71,0,0,1-.93-3,11.24,11.24,0,0,1-.17-2.85,7.08,7.08,0,0,1,.53-2.3,3.7,3.7,0,0,1,1-1.32,3,3,0,0,1,1.5-.74,3.52,3.52,0,0,1,2.37.38,4.46,4.46,0,0,1,1.78,1.82A14.32,14.32,0,0,1,384,43.32l-1.7.83a6.3,6.3,0,0,0-1.19-2.6,1.84,1.84,0,0,0-1.82-.68,2,2,0,0,0-1.65,1.19,3.78,3.78,0,0,0-.18,2.13,3.84,3.84,0,0,0,.46,1.3,2.31,2.31,0,0,0,.88.9c.21.11.81.34,1.79.69a17.22,17.22,0,0,1,3,1.3,4.73,4.73,0,0,1,1.56,1.79,11,11,0,0,1,1,3.2,11.86,11.86,0,0,1,.1,3.7A6,6,0,0,1,385.21,60a3.34,3.34,0,0,1-2.12,1.32A3.58,3.58,0,0,1,379.56,60,12.94,12.94,0,0,1,377.2,54.85Z"/></g><g class="cls-1"><path class="cls-2" d="M392.52,59.09l-4-22.57,1.64-.29.56,3.17a7.68,7.68,0,0,1,.88-2.91,2.52,2.52,0,0,1,1.75-1.35,2.38,2.38,0,0,1,2.15.7,7,7,0,0,1,1.6,2.72c.38-2.79,1.26-4.3,2.64-4.55a2.77,2.77,0,0,1,2.8,1.43A14.58,14.58,0,0,1,404.43,41l2.73,15.49-1.82.32-2.51-14.22a21.31,21.31,0,0,0-.76-3.27,3.61,3.61,0,0,0-.93-1.51,1.39,1.39,0,0,0-1.21-.43c-.76.14-1.3.78-1.61,1.92a12.68,12.68,0,0,0,.14,5.2l2.31,13.12-1.83.32-2.58-14.67a12.56,12.56,0,0,0-1.13-3.74c-.45-.8-1-1.14-1.69-1a1.88,1.88,0,0,0-1.28,1.1,5.77,5.77,0,0,0-.51,2.66,28.7,28.7,0,0,0,.54,4.77l2.06,11.71Z"/></g><g class="cls-1"><path class="cls-2" d="M418.31,42.91q-1.11-6.27,0-9.59c.63-1.83,1.62-2.87,3-3.1s2.88.54,4.18,2.41a20.68,20.68,0,0,1,2.9,8.18,30.18,30.18,0,0,1,.58,7,9.34,9.34,0,0,1-1.14,4.2,3.47,3.47,0,0,1-2.36,1.84q-2.28.4-4.21-2.39T418.31,42.91Zm1.88-.33a17.86,17.86,0,0,0,2.05,6.33c.86,1.33,1.75,1.92,2.66,1.76s1.54-1,1.89-2.57a18.45,18.45,0,0,0-.26-6.77,17.32,17.32,0,0,0-2-6.19c-.86-1.33-1.74-1.91-2.65-1.76s-1.54,1-1.9,2.55A17.92,17.92,0,0,0,420.19,42.58Z"/></g><g class="cls-1"><path class="cls-2" d="M435.93,51.44l-3.46-19.6-1.62.29-.52-3,1.61-.28-.42-2.41a21.15,21.15,0,0,1-.4-3.41,6,6,0,0,1,.5-2.58,2.22,2.22,0,0,1,1.71-1.25,4.51,4.51,0,0,1,1.77.08l.32,3.39a3,3,0,0,0-1.12,0,1.25,1.25,0,0,0-1.05,1,7.7,7.7,0,0,0,.15,2.84l.37,2.08,2.1-.37.53,3-2.11.37,3.46,19.6Z"/></g><g class="cls-1"><path class="cls-2" d="M455.75,44.42l.86,3.33a3.59,3.59,0,0,1-1.32.59,1.93,1.93,0,0,1-1.66-.39,3.83,3.83,0,0,1-1.08-1.6,27.4,27.4,0,0,1-1-4.47l-2.29-13-1.35.23-.52-3,1.34-.24-1-5.59,1.41-2.62,1.39,7.89,1.85-.33.52,3-1.84.33,2.33,13.2a13.68,13.68,0,0,0,.46,2.08,1.66,1.66,0,0,0,.45.69.75.75,0,0,0,.67.17A2.94,2.94,0,0,0,455.75,44.42Z"/><path class="cls-2" d="M462.13,47.35l-5.5-31.16,1.83-.33,2,11.19q.74-3.33,2.69-3.68a2.77,2.77,0,0,1,2.26.62,6,6,0,0,1,1.75,2.51,25.59,25.59,0,0,1,1.28,5l2.52,14.31-1.83.32-2.53-14.3a10.75,10.75,0,0,0-1.33-4.07,1.89,1.89,0,0,0-1.91-1A2.06,2.06,0,0,0,462,27.89a5.63,5.63,0,0,0-.6,2.57,22.34,22.34,0,0,0,.43,4.22L464,47Z"/></g><g class="cls-1"><path class="cls-2" d="M481.94,35.83l2,.16a13.57,13.57,0,0,1-.71,5.67,3.62,3.62,0,0,1-2.76,2.46q-2.37.42-4.29-2.39a21.29,21.29,0,0,1-2.9-8.31,22.76,22.76,0,0,1-.16-9.09q.86-3.41,3.09-3.79c1.44-.26,2.81.56,4.08,2.46a22.2,22.2,0,0,1,2.91,8.43c0,.23.09.57.17,1l-8.06,1.42a15.19,15.19,0,0,0,2,5.52c.84,1.21,1.71,1.74,2.61,1.58a2.07,2.07,0,0,0,1.52-1.41A9.86,9.86,0,0,0,481.94,35.83Zm-7.1-5.12,6-1.07a14,14,0,0,0-1.45-4.15c-.84-1.37-1.73-2-2.65-1.81s-1.45.86-1.81,2.14A11.78,11.78,0,0,0,474.84,30.71Z"/></g><g class="cls-1"><path class="cls-2" d="M500.35,40.26l-7.29-22,1.89-.34,4,12.73,1.49,4.74c0-.25-.1-1.83-.26-4.76l-.61-13.52,1.88-.34,3.93,12.81,1.3,4.22-.15-4.46L506.1,16l1.78-.32.61,23.18-1.9.33-4.11-13.22-1.1-3.77.88,17.75Z"/></g><g class="cls-1"><path class="cls-2" d="M510.6,10.68l-.78-4.4L511.65,6l.78,4.4Zm4.72,26.77-4-22.58,1.84-.32,4,22.58Z"/><path class="cls-2" d="M520.87,36.47,515.38,5.3,517.21,5l5.5,31.17Z"/></g><g class="cls-1"><path class="cls-2" d="M528.22,34.82,522.73,3.65l1.83-.32,5.5,31.17Z"/></g><g class="cls-1"><path class="cls-2" d="M536.39,33.38,535.62,29l2.08-.36.77,4.35Z"/></g><g class="cls-1"><path class="cls-2" d="M537.26,5.35,536.47.9l2-.34.62,3.5a18.79,18.79,0,0,1,.4,4.16,5.31,5.31,0,0,1-.9,2.84l-.72-1.43A2.84,2.84,0,0,0,538.4,8a12.09,12.09,0,0,0-.19-2.82Zm3.15-.56L539.63.35l2-.35.62,3.51a18.9,18.9,0,0,1,.41,4.16,5.28,5.28,0,0,1-.91,2.83L541,9.07a2.91,2.91,0,0,0,.56-1.62,12.14,12.14,0,0,0-.19-2.83Z"/></g></g><g class="cls-1"><text class="cls-3" transform="matrix(0.47, -0.08, 0.17, 0.98, 189.61, 131.33)">A</text><text class="cls-4" transform="matrix(0.47, -0.08, 0.17, 0.98, 199.17, 129.64)">n</text><text class="cls-5" transform="matrix(0.47, -0.08, 0.17, 0.98, 207.39, 128.19)">t</text><text class="cls-4" transform="matrix(0.47, -0.08, 0.17, 0.98, 212.29, 127.33)">o</text><text class="cls-4" transform="matrix(0.47, -0.08, 0.17, 0.98, 220.54, 125.87)">n</text><text class="cls-5" transform="matrix(0.47, -0.08, 0.17, 0.98, 228.75, 124.43)">i</text><text class="cls-4" transform="matrix(0.47, -0.08, 0.17, 0.98, 233.11, 123.66)">o</text><text class="cls-5" transform="matrix(0.47, -0.08, 0.17, 0.98, 241.43, 122.19)"> </text><text class="cls-4" transform="matrix(0.47, -0.08, 0.17, 0.98, 245.85, 121.41)">G</text><text class="cls-5" transform="matrix(0.47, -0.08, 0.17, 0.98, 256.11, 119.6)">r</text><text class="cls-4" transform="matrix(0.47, -0.08, 0.17, 0.98, 261.79, 118.6)">a</text><text class="cls-4" transform="matrix(0.47, -0.08, 0.17, 0.98, 269.46, 117.25)">m</text><text class="cls-4" transform="matrix(0.47, -0.08, 0.17, 0.98, 280.95, 115.22)">s</text><text class="cls-4" transform="matrix(0.47, -0.08, 0.17, 0.98, 288.56, 113.88)">c</text><text class="cls-5" transform="matrix(0.47, -0.08, 0.17, 0.98, 296.18, 112.53)">i</text><text class="cls-6" transform="matrix(0.47, -0.08, 0.17, 0.98, 300.6, 111.75)"> </text></g><text class="cls-6" transform="matrix(0.47, -0.08, 0.17, 0.98, 304.87, 109.59)">(</text><g class="cls-1"><text class="cls-6" transform="matrix(0.47, -0.08, 0.17, 0.98, 309.64, 110.16)">1</text><text class="cls-4" transform="matrix(0.47, -0.08, 0.17, 0.98, 316.78, 108.91)">8</text><text class="cls-6" transform="matrix(0.47, -0.08, 0.17, 0.98, 324.51, 107.54)">9</text><text class="cls-6" transform="matrix(0.47, -0.08, 0.17, 0.98, 332.01, 106.22)">1</text><text class="cls-6" transform="matrix(0.47, -0.08, 0.17, 0.98, 339.47, 104.9)">–</text><text class="cls-6" transform="matrix(0.47, -0.08, 0.17, 0.98, 346.69, 103.63)">1</text><text class="cls-4" transform="matrix(0.47, -0.08, 0.17, 0.98, 353.81, 102.38)">9</text><text class="cls-4" transform="matrix(0.47, -0.08, 0.17, 0.98, 361.55, 101.01)">3</text><text class="cls-6" transform="matrix(0.47, -0.08, 0.17, 0.98, 369.16, 99.67)">7</text></g><text class="cls-6" transform="matrix(0.47, -0.08, 0.17, 0.98, 376.81, 96.91)">)</text></g></g></svg>